<svg id="Layer_1" data-name="Layer 1" xmlns="http://www.w3.org/2000/svg" viewBox="0 0 1200 1200"><defs><style>.cls-1{fill:#212121;}</style></defs><path class="cls-1" d="M975.41,253.39c-18-6-20-14.75-14.38-31.3,18.14-40.2-37.89-21.32-34.44-51.74,4.82-69.91-117.57,11-164.34-24.72-100.72-24.56-184-147.41-292.07-61.3C404.34,148.19,287,142.22,265.29,249.05c-13,55.46-64.18,97.88-62,156.06,1.23,44-8.55,99,75.32,132.43-12.41,22.7-13.12,61.29-.07,91.41,6.85,15.81,21.84,39,52.53,49.25,3.33,29,21.93,95,68.93,119.87a32.57,32.57,0,0,1,.88,6.5v246.75a8.84,8.84,0,1,0,17.67,0V804.57c0-24.18-28-70.5-54.23-112-2.15-3.41-4.17-6.61-5.93-9.42,2.17.11,4.31.26,6.58.26,2.81,0,5.72-.1,8.7-.28a8.83,8.83,0,0,0-1.11-17.63c-47.35,3-68.48-22.06-77.81-43.56-13-30.1-8.4-64,.85-78.35,4.4,1.4,8.93,2.77,13.77,4.07,27.25,7.34,35.15,27.16,61.11,26.42,43.27-1.24,44.78,3.16,39.22-52.18C408.09,433.11,497.36,340.28,583,328.7c86.48-7.14,160.92,57.23,243.31,59.87q7.11,36,11.94,72.45c-5.72-3.73-13.15-6.59-16.46-8-23.22-8.09-49.21-8.82-72.28.11-5.48,2.07-5,10.74.85,12.05,15,3.76,29.66,5,44.66,6.74,13,1.27,30.59,3.4,43.61,4.62a6.35,6.35,0,0,0,1.57,0c6.3,52,9.73,104.42,11.64,156.49.32,68.76,3.18,200.64-52.67,246.8-15.13,8.76-44.46,17.36-66.9,20.11-70.76,9-150.51,3.73-211.37-36.8a2.95,2.95,0,0,0-3.63,4.63C559.14,901.68,613,916.11,667,918.89v131.67a8.84,8.84,0,1,0,17.67,0V919.37a431.36,431.36,0,0,0,50-2.61c25.49-3.53,51.42-9.26,75.11-22.76,37.56-30.39,46.8-81.69,53.41-126.55,10.48-89.76,2.64-179.7-8.93-268.69-5.76-37-11.11-73.87-20.33-110.18,25.5-.38,51.79-6.92,79.5-23.63C951.13,351.6,1036.51,285,975.41,253.39Z"/><path class="cls-1" d="M591.48,537.33c-9.7.36-17,13.63-16.38,29.64s9,28.69,18.74,28.34,17-13.63,16.38-29.64S601.18,537,591.48,537.33Z"/><ellipse class="cls-1" cx="791.16" cy="552.02" rx="17.57" ry="29.01" transform="translate(-22.97 34.48) rotate(-2.46)"/><path class="cls-1" d="M633.71,468.82a6.23,6.23,0,0,0-4.56-7.55,127.15,127.15,0,0,0-28.65-3.42c-29-.24-59.9,6.28-82.72,25.26-4.89,4.05-.69,12.37,5.52,10.78,15.27-3.46,37-8.23,52.23-10.72L602,478.73c9-1.49,18-3,27.2-5.36A6.24,6.24,0,0,0,633.71,468.82Z"/><path class="cls-1" d="M696.89,654.44A8.84,8.84,0,1,0,693,671.67,94,94,0,0,0,713.74,674c18.33,0,34.57-5.73,43.54-16.09,15.39-17.77,11.71-42.64-9.16-61.9a8.84,8.84,0,0,0-12,13c10.29,9.49,18.5,25,7.78,37.34C737.18,654.17,718.87,659.45,696.89,654.44Z"/><path class="cls-1" d="M659.67,759.93a8.84,8.84,0,0,0,2.64,12.21c17.77,11.46,35.81,17.19,54,17.19s36.43-5.71,54.71-17.12a8.83,8.83,0,0,0-9.35-15c-30.73,19.18-60.1,19.21-89.78.07A8.83,8.83,0,0,0,659.67,759.93Z"/><path class="cls-1" d="M308.91,566.25a8.84,8.84,0,0,0,3.16,17.39c12.87-2.36,27.12,5.2,31.27,13.51a8.84,8.84,0,0,0,15.81-7.9C351,573,328.47,562.68,308.91,566.25Z"/></svg>